<?xml version="1.0" encoding="UTF-8"?>
<!DOCTYPE svg PUBLIC "-//W3C//DTD SVG 1.1//EN" "http://www.w3.org/Graphics/SVG/1.1/DTD/svg11.dtd">
<svg xmlns="http://www.w3.org/2000/svg" version="1.1" width="90px" height="70px" style="shape-rendering:geometricPrecision; text-rendering:geometricPrecision; image-rendering:optimizeQuality; fill-rule:evenodd; clip-rule:evenodd" xmlns:xlink="http://www.w3.org/1999/xlink">
<g><path style="opacity:1" fill="#242a35" d="M -0.5,-0.5 C 29.5,-0.5 59.5,-0.5 89.5,-0.5C 89.5,22.8333 89.5,46.1667 89.5,69.5C 59.5,69.5 29.5,69.5 -0.5,69.5C -0.5,46.1667 -0.5,22.8333 -0.5,-0.5 Z"/></g>
<g><path style="opacity:1" fill="#24c682" d="M 75.5,61.5 C 54.1667,61.5 32.8333,61.5 11.5,61.5C 11.5,56.1667 11.5,50.8333 11.5,45.5C 32.6601,44.5027 53.9935,44.1694 75.5,44.5C 75.5,50.1667 75.5,55.8333 75.5,61.5 Z"/></g>
<g><path style="opacity:1" fill="#249067" d="M 11.5,45.5 C 11.5,50.8333 11.5,56.1667 11.5,61.5C 32.8333,61.5 54.1667,61.5 75.5,61.5C 54.0064,62.4973 32.3398,62.8307 10.5,62.5C 10.1778,56.642 10.5111,50.9753 11.5,45.5 Z"/></g>
</svg>
